<!DOCTYPE svg PUBLIC "-//W3C//DTD SVG 1.1//EN" "http://www.w3.org/Graphics/SVG/1.1/DTD/svg11.dtd">
<!-- Uploaded to: SVG Repo, www.svgrepo.com, Transformed by: SVG Repo Mixer Tools -->
<svg width="800px" height="800px" viewBox="0 0 24 24" id="Layer_1" data-name="Layer 1" xmlns="http://www.w3.org/2000/svg" fill="#ffffff" stroke="#ffffff">
<g id="SVGRepo_bgCarrier" stroke-width="0"/>
<g id="SVGRepo_tracerCarrier" stroke-linecap="round" stroke-linejoin="round"/>
<g id="SVGRepo_iconCarrier">
<defs>
<style>.cls-1{fill:none;stroke:#ffffff;stroke-miterlimit:10;stroke-width:1.91px;}</style>
</defs>
<path class="cls-1" d="M8.18,16.8,5,13.57A2,2,0,0,0,3.52,13h0a2,2,0,0,0-2,2h0a2,2,0,0,0,.59,1.43l4.18,4.18H20.59A1.9,1.9,0,0,0,22.5,18.7h0a1.9,1.9,0,0,0-1.91-1.9Z"/>
<line class="cls-1" x1="6.27" y1="23.48" x2="6.27" y2="20.61"/>
<line class="cls-1" x1="19.64" y1="23.48" x2="19.64" y2="20.61"/>
<polygon class="cls-1" points="20.59 8.21 3.41 8.21 12 1.52 20.59 8.21"/>
<line class="cls-1" x1="12" y1="16.8" x2="12" y2="8.2"/>
<line class="cls-1" x1="12" y1="23.48" x2="12" y2="20.61"/>
</g>
</svg>