<!DOCTYPE svg PUBLIC "-//W3C//DTD SVG 1.1//EN" "http://www.w3.org/Graphics/SVG/1.1/DTD/svg11.dtd">
<!-- Uploaded to: SVG Repo, www.svgrepo.com, Transformed by: SVG Repo Mixer Tools -->
<svg fill="#ffffff" height="800px" width="800px" version="1.1" id="Layer_1" xmlns="http://www.w3.org/2000/svg" xmlns:xlink="http://www.w3.org/1999/xlink" viewBox="0 0 512.004 512.004" xml:space="preserve" stroke="#ffffff">
<g id="SVGRepo_bgCarrier" stroke-width="0"/>
<g id="SVGRepo_tracerCarrier" stroke-linecap="round" stroke-linejoin="round"/>
<g id="SVGRepo_iconCarrier"> <g> <g> <path d="M504.164,416.565c-9.52,0-13.804-3.651-19.732-8.703c-6.508-5.547-14.606-12.449-29.9-12.449 c-15.294,0-23.392,6.902-29.899,12.448c-5.928,5.053-10.211,8.704-19.733,8.704c-9.52,0-13.804-3.651-19.732-8.703 c-6.508-5.547-14.604-12.449-29.899-12.449s-23.393,6.902-29.9,12.449c-5.928,5.052-10.211,8.703-19.733,8.703 c-9.52,0-13.803-3.651-19.731-8.703c-6.507-5.546-14.605-12.449-29.899-12.449c-15.294,0-23.392,6.902-29.899,12.449 c-5.928,5.052-10.21,8.703-19.732,8.703s-13.805-3.651-19.733-8.703c-6.508-5.547-14.606-12.449-29.9-12.449 c-2.856,0-5.461,0.241-7.85,0.669c5.162-13.284,9.338-30.41,12.444-51.135c0.642-4.281-2.308-8.27-6.589-8.911 c-4.282-0.647-8.27,2.307-8.911,6.589c-5.85,39.051-15.49,63.772-27.625,71.538c-0.235,0.12-0.476,0.232-0.718,0.344v-31.416 c0-4.329-3.508-7.837-7.837-7.837c-4.329,0-7.837,3.508-7.837,7.837v31.422c-13.13-7.762-31.635-39.394-34.82-154.156 c3.413,3.148,7.852,5.57,14.048,5.57c11.286,0,16.769-8.015,20.773-13.868c3.737-5.463,5.219-7.05,7.847-7.05 c2.622,0,4.103,1.587,7.837,7.046c4.003,5.856,9.486,13.872,20.774,13.872c6.183,0,10.616-2.413,14.027-5.553 c-0.371,13.153-0.953,25.615-1.748,37.205c-0.296,4.318,2.964,8.058,7.283,8.354c0.183,0.013,0.364,0.019,0.544,0.019 c4.083,0,7.526-3.165,7.811-7.301c1.239-18.069,1.979-38.161,2.198-59.708c0.049-4.42,0.073-9.027,0.073-14.082 c0-2.535-0.017-5.072-0.051-7.611c-0.036-2.634-0.092-5.272-0.164-7.909c-0.417-15.157-1.439-30.341-3.058-45.314 c-4.077-37.863-11.925-74.129-22.1-102.117c-10.776-29.64-22.025-44.668-33.437-44.668c-7.356,0-14.355,5.873-21.398,17.958 c-5.732,9.836-11.461,23.742-16.566,40.215c-1.281,4.134,1.031,8.524,5.166,9.805c4.134,1.278,8.523-1.031,9.805-5.166 c9.77-31.531,19.311-44.825,22.981-46.963c2.718,1.654,10.627,10.828,19.92,37.569c8.868,25.516,15.811,57.967,19.66,91.703 c-1.117,1.432-2.134,2.891-3.117,4.328c-3.733,5.456-5.214,7.043-7.833,7.043c-2.622,0-4.103-1.587-7.837-7.046 c-4.003-5.856-9.486-13.872-20.774-13.872c-11.292,0-16.778,8.019-20.783,13.873c-3.733,5.459-5.215,7.045-7.837,7.045 c-2.617,0-4.099-1.585-7.833-7.037c-0.982-1.435-1.999-2.892-3.115-4.322c1.506-13.219,3.463-26.267,5.869-38.816 c0.814-4.251-1.971-8.357-6.221-9.172c-4.262-0.812-8.358,1.972-9.172,6.221c-2.686,14.019-4.858,28.623-6.448,43.4 c-0.001,0.005-0.002,0.01-0.002,0.01c-1.902,17.593-2.983,35.463-3.224,53.234c-0.034,2.539-0.051,5.075-0.051,7.609 c0,5.055,0.024,9.661,0.073,14.082v0.001c0.76,74.637,7.397,127.281,20.113,158.635c-3.813-1.321-8.245-2.167-13.562-2.167 c-15.296,0-23.394,6.902-29.902,12.448c-5.929,5.053-10.212,8.704-19.736,8.704c-4.329,0-7.837,3.508-7.837,7.837v5.811 c0.001,35.591,28.653,64.547,63.87,64.547h333.714c4.329,0,7.837-3.508,7.837-7.837c0-4.329-3.508-7.837-7.837-7.837H63.87 c-26.128,0-47.467-21.193-48.177-47.518c10.41-1.863,16.756-7.27,22.048-11.78c5.929-5.052,10.212-8.703,19.735-8.703 c9.523,0,13.807,3.651,19.736,8.704c6.25,5.326,13.985,11.884,28.133,12.398c1.398,0.185,2.82,0.288,4.273,0.291 c0.014,0,0.027,0.002,0.042,0.002c0.031,0,0.062-0.004,0.093-0.004c6.471-0.019,12.423-1.914,17.839-5.623 c3.691-2.19,6.701-4.744,9.424-7.065c5.928-5.052,10.211-8.703,19.732-8.703s13.805,3.651,19.733,8.703 c6.508,5.547,14.606,12.449,29.9,12.449s23.392-6.902,29.899-12.449c5.928-5.052,10.21-8.703,19.732-8.703 s13.804,3.651,19.732,8.703c6.507,5.547,14.604,12.449,29.898,12.449c15.295,0,23.393-6.902,29.9-12.449 c5.928-5.052,10.211-8.703,19.733-8.703c9.52,0,13.804,3.651,19.732,8.703c6.508,5.547,14.606,12.449,29.899,12.449 c15.295,0,23.393-6.902,29.9-12.449c5.928-5.052,10.211-8.703,19.732-8.703s13.805,3.651,19.733,8.704 c5.29,4.509,11.635,9.916,22.044,11.779c-0.712,26.324-22.05,47.518-48.177,47.518c-4.329,0-7.837,3.508-7.837,7.837 c0,4.329,3.508,7.837,7.837,7.837c35.217,0,63.869-28.956,63.869-64.549v-5.811C512.001,420.073,508.493,416.565,504.164,416.565z M66.542,232.271c-0.001-0.265-0.002-0.536-0.003-0.804c-0.004-0.786-0.007-1.582-0.009-2.389 c-0.001-0.323-0.002-0.646-0.003-0.972c-0.002-1.064-0.004-2.139-0.004-3.243c0-2.996,0.033-5.997,0.083-9 c0.015-0.874,0.034-1.747,0.053-2.622c0.048-2.272,0.111-4.544,0.187-6.817c0.028-0.832,0.052-1.664,0.085-2.496 c0.114-2.992,0.247-5.984,0.41-8.974c0.021-0.392,0.049-0.783,0.071-1.173c0.147-2.614,0.316-5.228,0.499-7.837 c0.029-0.406,0.061-0.812,0.09-1.218c3.275,2.703,7.447,4.681,13.049,4.681c11.286,0,16.768-8.016,20.773-13.868 c3.737-5.463,5.219-7.05,7.847-7.05c2.622,0,4.103,1.587,7.837,7.046c4.003,5.856,9.486,13.872,20.774,13.872 c5.597,0,9.768-1.974,13.037-4.677c0.029,0.396,0.06,0.792,0.088,1.188c0.185,2.609,0.352,5.221,0.499,7.836 c0.023,0.403,0.051,0.807,0.073,1.211c0.162,2.98,0.294,5.962,0.407,8.944c0.032,0.848,0.057,1.697,0.086,2.545 c0.075,2.256,0.138,4.512,0.185,6.767c0.019,0.884,0.039,1.767,0.053,2.651c0.049,3,0.083,5.997,0.083,8.99 c0,1.105-0.001,2.181-0.004,3.245c-0.001,0.325-0.002,0.647-0.003,0.969c-0.002,0.81-0.005,1.608-0.009,2.397 c-0.001,0.264-0.002,0.533-0.003,0.795c-0.005,0.912-0.011,1.808-0.018,2.698c-2.737,2.523-4.779,5.511-6.648,8.243 c-3.73,5.459-5.211,7.045-7.828,7.045c-2.622,0-4.103-1.587-7.837-7.046c-4.003-5.856-9.486-13.872-20.774-13.872 c-11.292,0-16.778,8.019-20.783,13.873c-3.733,5.459-5.215,7.045-7.837,7.045c-2.616,0-4.097-1.586-7.828-7.041 c-1.87-2.734-3.917-5.726-6.658-8.25C66.553,234.077,66.547,233.182,66.542,232.271z"/> </g> </g> <g> <g> <path d="M346.646,128.248c-33.97,0-61.606,27.637-61.606,61.606c0,33.97,27.636,61.606,61.606,61.606s61.606-27.636,61.606-61.606 C408.252,155.884,380.616,128.248,346.646,128.248z M346.646,235.786c-25.327,0-45.933-20.605-45.933-45.933 s20.605-45.933,45.933-45.933s45.933,20.605,45.933,45.933S371.973,235.786,346.646,235.786z"/> </g> </g> <g> <g> <path d="M346.646,91.372c-4.329,0-7.837,3.508-7.837,7.837v11.494c0,4.329,3.508,7.837,7.837,7.837s7.837-3.508,7.837-7.837 V99.209C354.483,94.88,350.975,91.372,346.646,91.372z"/> </g> </g> <g> <g> <path d="M346.646,261.168c-4.329,0-7.837,3.509-7.837,7.837v11.494c0,4.329,3.508,7.837,7.837,7.837s7.837-3.508,7.837-7.837 v-11.494C354.483,264.676,350.975,261.168,346.646,261.168z"/> </g> </g> <g> <g> <path d="M416.283,120.22c-3.062-3.06-8.024-3.062-11.082-0.001l-8.127,8.126c-3.062,3.061-3.062,8.023-0.001,11.082 c1.531,1.53,3.536,2.296,5.541,2.296c2.005,0,4.011-0.765,5.541-2.295l8.127-8.126 C419.344,128.241,419.344,123.279,416.283,120.22z"/> </g> </g> <g> <g> <path d="M296.22,240.281c-3.061-3.059-8.023-3.059-11.084,0l-8.127,8.127c-3.06,3.062-3.06,8.023,0,11.083 c1.531,1.53,3.537,2.295,5.542,2.295c2.005,0,4.011-0.765,5.542-2.295l8.127-8.127 C299.281,248.302,299.281,243.341,296.22,240.281z"/> </g> </g> <g> <g> <path d="M437.291,182.017h-11.494c-4.329,0-7.837,3.508-7.837,7.837c0,4.329,3.508,7.837,7.837,7.837h11.494 c4.329,0,7.837-3.508,7.837-7.837C445.128,185.525,441.62,182.017,437.291,182.017z"/> </g> </g> <g> <g> <path d="M267.495,182.017h-11.494c-4.329,0-7.837,3.508-7.837,7.837c0,4.329,3.508,7.837,7.837,7.837h11.494 c4.329,0,7.837-3.508,7.837-7.837C275.332,185.525,271.824,182.017,267.495,182.017z"/> </g> </g> <g> <g> <path d="M416.284,248.408l-8.128-8.127c-3.062-3.059-8.023-3.059-11.083,0c-3.06,3.062-3.06,8.023,0,11.083l8.127,8.127 c1.531,1.53,3.537,2.295,5.542,2.295s4.011-0.765,5.542-2.295C419.345,256.429,419.345,251.468,416.284,248.408z"/> </g> </g> <g> <g> <path d="M296.219,128.345l-8.127-8.126c-3.059-3.059-8.022-3.06-11.082,0.001c-3.06,3.06-3.06,8.023,0.001,11.082l8.126,8.126 c1.53,1.53,3.536,2.295,5.541,2.295c2.005,0,4.011-0.765,5.542-2.296C299.281,136.367,299.281,131.404,296.219,128.345z"/> </g> </g> <g> <g> <circle cx="63.74" cy="438.859" r="7.837"/> </g> </g> <g> <g> <circle cx="149.244" cy="438.859" r="7.837"/> </g> </g> <g> <g> <circle cx="194.53" cy="460.457" r="7.837"/> </g> </g> <g> <g> <circle cx="248.164" cy="437.25" r="7.837"/> </g> </g> <g> <g> <circle cx="312.248" cy="456.058" r="7.837"/> </g> </g> <g> <g> <circle cx="351.797" cy="437.25" r="7.837"/> </g> </g> <g> <g> <circle cx="429.454" cy="456.058" r="7.837"/> </g> </g> </g>
</svg>